HIERARCHY
ROOT hip
{
	OFFSET 0.000000 0.000000 0.000000
	CHANNELS 6 Xposition Yposition Zposition Xrotation Zrotation Yrotation 
	JOINT abdomen
	{
		OFFSET 0.000000 3.422050 0.000000
		CHANNELS 3 Xrotation Zrotation Yrotation 
		JOINT chest
		{
			OFFSET 0.000000 8.486693 -0.684411
			CHANNELS 3 Xrotation Zrotation Yrotation 
			JOINT neck
			{
				OFFSET 0.000000 10.266162 -0.273764
				CHANNELS 3 Xrotation Zrotation Yrotation 
				JOINT head
				{
					OFFSET 0.000000 3.148285 0.000000
					CHANNELS 3 Xrotation Zrotation Yrotation 
					End Site
					{
						OFFSET 0.000000 3.148289 0.000000
					}
				}
			}
			JOINT lCollar
			{
				OFFSET 3.422053 6.707223 -0.821293
				CHANNELS 3 Yrotation Zrotation Xrotation 
				JOINT lShldr
				{
					OFFSET 3.285171 0.000000 0.000000
					CHANNELS 3 Zrotation Yrotation Xrotation 
					JOINT lForeArm
					{
						OFFSET 10.129278 0.000000 0.000000
						CHANNELS 3 Yrotation Zrotation Xrotation 
						JOINT lHand
						{
							OFFSET 8.486692 0.000000 0.000000
							CHANNELS 3 Zrotation Yrotation Xrotation 
							End Site
							{
								OFFSET 4.106464 0.000000 0.000000
							}
						}
					}
				}
			}
			JOINT rCollar
			{
				OFFSET -3.558935 6.707223 -0.821293
				CHANNELS 3 Yrotation Zrotation Xrotation 
				JOINT rShldr
				{
					OFFSET -3.148289 0.000000 0.000000
					CHANNELS 3 Zrotation Yrotation Xrotation 
					JOINT rForeArm
					{
						OFFSET -10.266159 0.000000 0.000000
						CHANNELS 3 Yrotation Zrotation Xrotation 
						JOINT rHand
						{
							OFFSET -8.349810 0.000000 0.000000
							CHANNELS 3 Zrotation Yrotation Xrotation 
							End Site
							{
								OFFSET -4.106464 0.000000 0.000000
							}
						}
					}
				}
			}
		}
	}
	JOINT lThigh
	{
		OFFSET 5.338403 -1.642589 1.368821
		CHANNELS 3 Xrotation Zrotation Yrotation 
		JOINT lShin
		{
			OFFSET -2.053232 -20.121670 0.000000
			CHANNELS 3 Xrotation Zrotation Yrotation 
			JOINT lFoot
			{
				OFFSET 0.000000 -19.300380 -1.231939
				CHANNELS 3 Xrotation Yrotation Zrotation 
				End Site
				{
					OFFSET 0.000000 -2.463878 4.653993
				}
			}
		}
	}
	JOINT rThigh
	{
		OFFSET -5.338403 -1.642589 1.368821
		CHANNELS 3 Xrotation Zrotation Yrotation 
		JOINT rShin
		{
			OFFSET 2.053232 -20.121670 0.000000
			CHANNELS 3 Xrotation Zrotation Yrotation 
			JOINT rFoot
			{
				OFFSET 0.000000 -19.300380 -1.231939
				CHANNELS 3 Xrotation Yrotation Zrotation 
				End Site
				{
					OFFSET 0.000000 -2.463878 4.653993
				}
			}
		}
	}
}
MOTION
Frames: 20
Frame Time: 0.033264
0.000000 43.528500 0.000000 0.000000 0.000000 0.000000 0.000000 0.000000 0.000000 0.000000 0.000000 0.000000 0.000000 0.000000 0.000000 0.000000 0.000000 0.000000 0.000000 0.000000 0.000000 0.000000 0.000000 0.000000 0.000000 0.000000 0.000000 0.000000 0.000000 0.000000 0.000000 0.000000 0.000000 0.000000 0.000000 0.000000 0.000000 0.000000 0.000000 0.000000 0.000000 0.000000 0.000000 0.000000 0.000000 0.000000 0.000000 0.000000 0.000000 0.000000 0.000000 0.000000 0.000000 0.000000 0.000000 0.000000 0.000000 0.000000 0.000000 0.000000 
1.432780 35.277222 -4.526641 -27.024021 -5.566020 -14.986250 16.764290 4.982493 3.896341 10.955608 -2.320561 -0.147019 24.998707 -4.000118 -0.000028 -39.334782 22.430798 -5.053690 4.000649 0.719574 -5.522907 -71.510658 -30.961136 63.809505 -23.018806 19.426620 17.023876 18.602522 3.034593 5.243333 10.549182 -12.902308 1.328685 62.137661 18.900400 -10.279100 85.049271 2.179796 5.054397 -9.438049 -14.439237 -28.402628 -40.521618 17.365705 22.332968 33.560234 1.537593 -0.392954 38.434700 -20.458599 -0.553756 -46.817333 0.452469 -12.059060 28.971418 1.504161 -1.159259 43.575314 -8.011072 -14.069588 
1.432780 35.277222 -4.526641 -27.024021 -5.566020 -14.986250 16.764290 4.982493 3.896341 10.955609 -2.320561 -0.147019 24.998707 -4.000118 -0.000028 -39.341152 22.585138 -4.874994 4.000649 0.719574 -5.522907 -71.510658 -30.961136 63.809505 -23.367355 19.198099 17.067518 18.626190 3.034503 5.242864 10.549183 -12.902308 1.328685 62.137661 18.900400 -10.279100 85.049271 2.179796 5.054397 -9.438049 -14.439237 -28.402628 -40.521618 17.365705 22.332968 33.560234 1.537593 -0.392954 38.434700 -20.458599 -0.553756 -46.817333 0.452469 -12.059060 28.971418 1.504161 -1.159259 43.575314 -8.011072 -14.069588 
1.432780 35.277222 -4.526641 -27.024023 -5.566020 -14.986252 16.764290 4.982493 3.896341 10.955608 -2.320561 -0.147019 24.998707 -4.000119 -0.000028 -39.347008 22.739525 -4.696078 4.000649 0.719574 -5.522907 -71.510666 -30.961136 63.809505 -23.715500 18.969154 17.109657 18.649860 3.034411 5.242392 10.549182 -12.902308 1.328685 62.137661 18.900400 -10.279100 85.049271 2.179796 5.054397 -9.438051 -14.439237 -28.402630 -40.521618 17.365705 22.332968 33.560234 1.537593 -0.392954 38.434704 -20.458601 -0.553756 -46.817333 0.452469 -12.059062 28.971418 1.504161 -1.159260 43.575314 -8.011072 -14.069588 
1.432780 35.277222 -4.526641 -27.024023 -5.566020 -14.986250 16.764290 4.982493 3.896341 10.955609 -2.320561 -0.147019 24.998707 -4.000118 -0.000028 -39.352345 22.893961 -4.516942 4.000649 0.719574 -5.522907 -71.510666 -30.961138 63.809505 -24.063259 18.739803 17.150305 18.673525 3.034321 5.241922 10.549183 -12.902308 1.328685 62.137672 18.900402 -10.279099 85.049271 2.179796 5.054397 -9.438049 -14.439237 -28.402628 -40.521618 17.365705 22.332968 33.560234 1.537593 -0.392954 38.434700 -20.458599 -0.553756 -46.817333 0.452469 -12.059060 28.971418 1.504161 -1.159259 43.575317 -8.011072 -14.069587 
1.432780 35.277222 -4.526641 -27.024023 -5.566020 -14.986250 16.764292 4.982493 3.896341 10.955608 -2.320561 -0.147019 24.998707 -4.000118 -0.000028 -39.357166 23.048439 -4.337584 4.000649 0.719574 -5.522907 -71.510658 -30.961136 63.809505 -24.410614 18.510057 17.189451 18.697201 3.034231 5.241452 10.549182 -12.902309 1.328685 62.137661 18.900400 -10.279100 85.049271 2.179796 5.054397 -9.438049 -14.439237 -28.402628 -40.521618 17.365705 22.332968 33.560234 1.537593 -0.392954 38.434700 -20.458599 -0.553756 -46.817337 0.452469 -12.059060 28.971418 1.504161 -1.159259 43.575314 -8.011072 -14.069587 
1.432780 35.277222 -4.526641 -27.024021 -5.566020 -14.986252 16.764290 4.982493 3.896341 10.955609 -2.320561 -0.147019 24.998707 -4.000119 -0.000028 -39.361473 23.202959 -4.158000 4.000649 0.719574 -5.522907 -71.510666 -30.961132 63.809505 -24.757582 18.279932 17.227104 18.720865 3.034140 5.240981 10.549183 -12.902308 1.328685 62.137661 18.900400 -10.279100 85.049271 2.179796 5.054397 -9.438049 -14.439237 -28.402628 -40.521622 17.365707 22.332966 33.560242 1.537593 -0.392954 38.434704 -20.458601 -0.553757 -46.817333 0.452470 -12.059060 28.971418 1.504161 -1.159259 43.575314 -8.011072 -14.069589 
1.432780 35.277222 -4.526641 -27.024019 -5.566020 -14.986250 16.764288 4.982493 3.896341 10.955607 -2.320561 -0.147019 24.998705 -4.000118 -0.000028 -39.365250 23.357513 -3.978191 4.000649 0.719574 -5.522907 -71.510658 -30.961136 63.809498 -25.104168 18.049444 17.263268 18.744534 3.034050 5.240509 10.549180 -12.902306 1.328685 62.137661 18.900398 -10.279099 85.049271 2.179796 5.054397 -9.438049 -14.439237 -28.402628 -40.521618 17.365704 22.332966 33.560234 1.537593 -0.392954 38.434700 -20.458599 -0.553756 -46.817333 0.452469 -12.059060 28.971418 1.504161 -1.159259 43.575310 -8.011071 -14.069588 
1.432780 35.277222 -4.526641 -27.024019 -5.566019 -14.986248 16.764290 4.982492 3.896341 10.955607 -2.320561 -0.147019 24.998707 -4.000118 -0.000028 -39.368504 23.512106 -3.798154 4.000648 0.719574 -5.522906 -71.510658 -30.961136 63.809505 -25.450367 17.818602 17.297937 18.768202 3.033960 5.240038 10.549182 -12.902307 1.328685 62.137653 18.900396 -10.279099 85.049271 2.179796 5.054397 -9.438049 -14.439236 -28.402628 -40.521614 17.365705 22.332966 33.560230 1.537593 -0.392954 38.434700 -20.458599 -0.553756 -46.817333 0.452469 -12.059060 28.971418 1.504161 -1.159260 43.575310 -8.011072 -14.069588 
1.432780 35.277222 -4.526641 -27.024019 -5.566020 -14.986248 16.764290 4.982493 3.896341 10.955607 -2.320561 -0.147019 24.998705 -4.000118 -0.000028 -39.371243 23.666735 -3.617887 4.000649 0.719574 -5.522906 -71.510658 -30.961132 63.809498 -25.796192 17.587423 17.331120 18.791872 3.033870 5.239567 10.549182 -12.902308 1.328685 62.137661 18.900398 -10.279099 85.049271 2.179796 5.054397 -9.438047 -14.439236 -28.402626 -40.521614 17.365704 22.332964 33.560234 1.537593 -0.392954 38.434700 -20.458597 -0.553757 -46.817329 0.452470 -12.059060 28.971418 1.504161 -1.159259 43.575314 -8.011072 -14.069588 
1.432780 35.277222 -4.526641 -27.024021 -5.566020 -14.986250 16.764288 4.982492 3.896341 10.955607 -2.320561 -0.147019 24.998707 -4.000118 -0.000028 -39.373440 23.821384 -3.437386 4.000649 0.719574 -5.522906 -71.510658 -30.961136 63.809505 -26.141638 17.355921 17.362816 18.815542 3.033780 5.239096 10.549182 -12.902308 1.328685 62.137661 18.900398 -10.279099 85.049263 2.179795 5.054397 -9.438049 -14.439237 -28.402628 -40.521618 17.365705 22.332968 33.560234 1.537593 -0.392954 38.434696 -20.458599 -0.553757 -46.817329 0.452469 -12.059059 28.971418 1.504161 -1.159259 43.575314 -8.011072 -14.069588 
1.432780 35.277222 -4.526641 -27.024021 -5.566020 -14.986250 16.764290 4.982493 3.896341 10.955607 -2.320561 -0.147019 24.998707 -4.000118 -0.000028 -39.375103 23.976061 -3.256653 4.000649 0.719574 -5.522907 -71.510658 -30.961128 63.809498 -26.486712 17.124111 17.393028 18.839212 3.033691 5.238625 10.549182 -12.902308 1.328685 62.137661 18.900398 -10.279099 85.049271 2.179796 5.054397 -9.438049 -14.439237 -28.402628 -40.521618 17.365705 22.332968 33.560234 1.537593 -0.392954 38.434700 -20.458599 -0.553756 -46.817333 0.452469 -12.059060 28.971418 1.504161 -1.159259 43.575314 -8.011072 -14.069588 
1.432780 35.277222 -4.526641 -27.024021 -5.566020 -14.986250 16.764290 4.982493 3.896341 10.955608 -2.320561 -0.147019 24.998707 -4.000118 -0.000028 -39.376251 24.130766 -3.075685 4.000649 0.719574 -5.522907 -71.510658 -30.961136 63.809505 -26.831419 16.892008 17.421759 18.862885 3.033602 5.238155 10.549182 -12.902308 1.328685 62.137661 18.900400 -10.279100 85.049271 2.179796 5.054397 -9.438049 -14.439237 -28.402628 -40.521618 17.365705 22.332968 33.560234 1.537593 -0.392954 38.434700 -20.458599 -0.553756 -46.817333 0.452469 -12.059060 28.971418 1.504161 -1.159259 43.575314 -8.011072 -14.069588 
1.432780 35.277222 -4.526641 -27.024021 -5.566020 -14.986250 16.764290 4.982493 3.896341 10.955608 -2.320561 -0.147019 24.998707 -4.000118 -0.000028 -39.376854 24.285490 -2.894478 4.000649 0.719574 -5.522907 -71.510658 -30.961136 63.809505 -27.175755 16.659618 17.449005 18.886555 3.033513 5.237683 10.549182 -12.902308 1.328685 62.137661 18.900400 -10.279100 85.049271 2.179796 5.054397 -9.438049 -14.439237 -28.402628 -40.521618 17.365705 22.332968 33.560234 1.537593 -0.392954 38.434700 -20.458599 -0.553756 -46.817333 0.452469 -12.059060 28.971418 1.504161 -1.159259 43.575314 -8.011072 -14.069588 
1.432780 35.277222 -4.526641 -27.024023 -5.566020 -14.986250 16.764290 4.982493 3.896341 10.955608 -2.320561 -0.147019 24.998709 -4.000118 -0.000028 -39.376926 24.440233 -2.713033 4.000649 0.719574 -5.522907 -71.510658 -30.961136 63.809505 -27.519733 16.426970 17.474781 18.910223 3.033424 5.237212 10.549182 -12.902308 1.328685 62.137661 18.900400 -10.279101 85.049271 2.179796 5.054397 -9.438049 -14.439237 -28.402628 -40.521622 17.365705 22.332968 33.560238 1.537593 -0.392954 38.434704 -20.458601 -0.553756 -46.817333 0.452469 -12.059061 28.971418 1.504161 -1.159259 43.575317 -8.011072 -14.069589 
1.432780 35.277222 -4.526641 -27.024021 -5.566020 -14.986250 16.764290 4.982494 3.896341 10.955609 -2.320561 -0.147019 24.998707 -4.000118 -0.000028 -39.376442 24.594980 -2.531343 4.000649 0.719574 -5.522907 -71.510658 -30.961136 63.809505 -27.863352 16.194067 17.499079 18.933895 3.033336 5.236740 10.549182 -12.902308 1.328685 62.137669 18.900400 -10.279101 85.049286 2.179796 5.054397 -9.438049 -14.439237 -28.402628 -40.521622 17.365707 22.332968 33.560242 1.537593 -0.392954 38.434700 -20.458599 -0.553756 -46.817333 0.452469 -12.059060 28.971418 1.504161 -1.159259 43.575314 -8.011072 -14.069591 
1.432780 35.277222 -4.526641 -27.024021 -5.566020 -14.986250 16.764290 4.982493 3.896341 10.955608 -2.320561 -0.147019 24.998709 -4.000118 -0.000028 -39.375435 24.749754 -2.349413 4.000649 0.719574 -5.522907 -71.510666 -30.961138 63.809505 -28.206619 15.960926 17.521906 18.957565 3.033247 5.236270 10.549182 -12.902308 1.328685 62.137669 18.900400 -10.279101 85.049271 2.179796 5.054397 -9.438049 -14.439237 -28.402628 -40.521618 17.365705 22.332968 33.560238 1.537593 -0.392954 38.434700 -20.458599 -0.553756 -46.817333 0.452469 -12.059060 28.971418 1.504161 -1.159259 43.575314 -8.011072 -14.069589 
1.432780 35.277222 -4.526641 -27.024023 -5.566020 -14.986252 16.764290 4.982493 3.896341 10.955610 -2.320561 -0.147019 24.998707 -4.000119 -0.000028 -39.373875 24.904528 -2.167236 4.000649 0.719574 -5.522907 -71.510666 -30.961142 63.809505 -28.549532 15.727563 17.543266 18.981236 3.033159 5.235798 10.549182 -12.902308 1.328685 62.137669 18.900400 -10.279101 85.049271 2.179796 5.054397 -9.438051 -14.439237 -28.402630 -40.521618 17.365705 22.332968 33.560238 1.537593 -0.392954 38.434708 -20.458601 -0.553756 -46.817337 0.452469 -12.059061 28.971418 1.504161 -1.159260 43.575314 -8.011072 -14.069588 
1.432780 35.277222 -4.526641 -27.024019 -5.566020 -14.986250 16.764290 4.982492 3.896341 10.955606 -2.320561 -0.147019 24.998707 -4.000118 -0.000028 -39.371777 25.059317 -1.984811 4.000649 0.719574 -5.522907 -71.510658 -30.961132 63.809498 -28.892099 15.493992 17.563160 19.004910 3.033071 5.235327 10.549182 -12.902307 1.328685 62.137661 18.900400 -10.279100 85.049271 2.179796 5.054397 -9.438049 -14.439237 -28.402628 -40.521614 17.365705 22.332966 33.560234 1.537593 -0.392954 38.434696 -20.458599 -0.553757 -46.817333 0.452469 -12.059060 28.971418 1.504161 -1.159259 43.575310 -8.011071 -14.069586 
1.432780 35.277222 -4.526641 -27.024021 -5.566020 -14.986250 16.764290 4.982492 3.896341 10.955608 -2.320561 -0.147019 24.998703 -4.000118 -0.000028 -39.369118 25.214096 -1.802136 4.000649 0.719574 -5.522907 -71.510658 -30.961128 63.809498 -29.234316 15.260225 17.581585 19.028578 3.032984 5.234855 10.549181 -12.902307 1.328685 62.137661 18.900400 -10.279100 85.049271 2.179796 5.054397 -9.438047 -14.439236 -28.402626 -40.521618 17.365704 22.332966 33.560234 1.537593 -0.392954 38.434700 -20.458599 -0.553756 -46.817333 0.452469 -12.059060 28.971418 1.504161 -1.159259 43.575310 -8.011072 -14.069586 
